<?xml version="1.0" encoding="UTF-8" standalone="no"?>
<!DOCTYPE svg PUBLIC "-//W3C//DTD SVG 1.1//EN" "http://www.w3.org/Graphics/SVG/1.1/DTD/svg11.dtd">
<svg xmlns="http://www.w3.org/2000/svg" version="1.1" viewBox="0.00 0.00 502.00 463.00">
<g stroke-width="2.00" fill="none" stroke-linecap="butt">
<path stroke="#8cbdc3" vector-effect="non-scaling-stroke" d="
  M 91.18 63.58
  Q 77.86 73.15 66.29 84.91"
/>
<path stroke="#8fccd3" vector-effect="non-scaling-stroke" d="
  M 66.29 84.91
  Q 42.21 109.65 29.02 141.42"
/>
<path stroke="#93e4ed" vector-effect="non-scaling-stroke" d="
  M 29.02 141.42
  Q 20.27 162.99 16.93 186.00
  Q 14.95 199.62 14.62 206.31
  Q 13.53 228.49 14.67 241.66
  Q 16.35 260.94 18.94 276.44
  C 21.37 290.95 24.91 305.29 29.15 320.26
  Q 29.84 322.72 32.33 323.71
  Q 32.78 323.89 33.13 323.59
  Q 34.64 322.30 34.34 320.11
  Q 31.77 301.73 30.14 286.12
  C 29.10 276.14 29.19 266.52 29.08 256.47
  Q 28.82 232.95 33.77 208.03
  Q 35.38 199.89 37.59 191.36
  C 38.87 186.44 40.80 182.01 42.36 177.15
  Q 44.37 170.91 47.18 164.83"
/>
<path stroke="#8fccd3" vector-effect="non-scaling-stroke" d="
  M 47.18 164.83
  Q 49.64 159.71 52.39 154.59
  Q 63.13 134.54 78.72 117.97
  Q 80.91 115.63 82.35 114.44"
/>
<path stroke="#8cbdc3" vector-effect="non-scaling-stroke" d="
  M 82.35 114.44
  Q 92.48 104.38 103.73 96.40"
/>
<path stroke="#89b0b4" vector-effect="non-scaling-stroke" d="
  M 103.73 96.40
  Q 118.75 85.90 125.67 82.67
  Q 130.12 80.60 134.40 78.45
  C 139.74 75.77 145.25 73.77 150.73 71.47
  Q 154.31 69.97 158.26 68.63
  Q 184.83 59.60 212.51 55.52
  Q 229.38 53.04 236.42 52.28
  Q 250.13 50.81 264.76 52.44
  Q 289.03 55.14 308.47 59.33
  Q 327.59 63.45 345.03 69.68
  Q 360.35 75.15 376.92 83.83"
/>
<path stroke="#8cbdc3" vector-effect="non-scaling-stroke" d="
  M 376.92 83.83
  Q 390.64 91.44 403.05 100.90
  C 405.45 102.73 408.11 105.25 410.79 107.33"
/>
<path stroke="#8fccd3" vector-effect="non-scaling-stroke" d="
  M 410.79 107.33
  Q 424.33 119.06 435.16 133.59"
/>
<path stroke="#93e4ed" vector-effect="non-scaling-stroke" d="
  M 435.16 133.59
  Q 447.99 151.00 456.23 170.92
  C 458.08 175.40 459.39 179.91 461.04 184.42
  Q 462.84 189.35 464.13 194.69
  Q 468.93 214.61 470.39 229.94
  Q 474.40 272.18 466.59 318.01
  Q 466.16 320.56 466.88 322.77
  A 1.42 1.42 0.0 0 0 468.94 323.57
  C 471.30 322.21 471.58 320.51 472.44 317.53
  C 480.99 287.69 485.88 257.99 486.67 227.07
  C 486.82 221.25 486.46 215.29 486.25 209.50
  Q 485.44 188.25 480.41 168.24
  C 478.82 161.92 477.40 155.48 475.25 149.36
  Q 471.09 137.47 465.38 126.72"
/>
<path stroke="#8fccd3" vector-effect="non-scaling-stroke" d="
  M 465.38 126.72
  Q 457.66 112.05 448.04 99.82"
/>
<path stroke="#8cbdc3" vector-effect="non-scaling-stroke" d="
  M 448.04 99.82
  Q 439.22 88.54 428.99 79.00"
/>
<path stroke="#89b0b4" vector-effect="non-scaling-stroke" d="
  M 428.99 79.00
  Q 411.41 62.80 390.67 50.84
  Q 365.45 36.30 337.46 27.74
  C 329.80 25.40 322.30 22.88 314.66 21.28
  C 308.92 20.08 303.22 18.49 297.34 17.45
  Q 277.68 13.98 264.65 13.09
  Q 247.56 11.91 230.97 13.69
  Q 217.86 15.09 203.58 17.54
  C 198.25 18.45 193.23 20.06 187.91 21.10
  C 179.05 22.83 170.47 25.76 161.97 28.42
  Q 134.79 36.92 109.86 51.37
  Q 100.26 56.93 91.18 63.58"
/>
<path stroke="#166e78" vector-effect="non-scaling-stroke" d="
  M 428.99 79.00
  Q 428.97 79.56 428.81 79.93
  Q 428.58 80.43 428.09 80.20
  Q 427.48 79.92 426.92 80.28
  Q 426.51 80.54 426.02 80.58
  C 424.56 80.70 423.62 80.87 421.99 80.69
  Q 420.72 80.55 419.40 80.93
  Q 418.94 81.07 418.59 80.74
  Q 418.37 80.54 418.14 80.79
  Q 417.91 81.04 417.57 81.08
  Q 410.34 81.99 403.40 83.06
  C 402.45 83.21 401.54 82.85 400.73 83.02
  Q 395.74 84.06 393.02 84.06
  Q 387.68 84.06 382.68 84.11
  Q 382.38 84.11 382.11 84.25
  Q 381.98 84.32 381.83 84.36
  Q 381.45 84.47 381.08 84.36
  Q 379.14 83.81 376.92 83.83"
/>
<path stroke="#166e78" vector-effect="non-scaling-stroke" d="
  M 103.73 96.40
  Q 101.92 94.27 101.01 91.29
  Q 99.83 87.38 99.21 85.90
  Q 97.53 81.90 96.63 77.66
  Q 95.86 74.07 95.07 71.97
  Q 94.04 69.21 92.95 66.48
  Q 92.77 66.02 92.38 65.71
  Q 90.80 64.46 91.18 63.58"
/>
<path stroke="#1b8a96" vector-effect="non-scaling-stroke" d="
  M 448.04 99.82
  Q 447.11 101.39 444.78 101.31
  Q 442.40 101.24 441.46 101.43
  Q 426.14 104.57 410.79 107.33"
/>
<path stroke="#1b8a96" vector-effect="non-scaling-stroke" d="
  M 82.35 114.44
  L 80.54 111.32
  A 0.02 0.02 0.0 0 1 80.55 111.29
  Q 80.76 111.31 80.79 111.19
  Q 80.82 111.04 80.75 110.91
  Q 78.54 106.89 76.21 103.36
  Q 75.97 103.00 75.97 102.57
  Q 75.96 101.65 75.18 101.16
  Q 74.69 100.84 74.37 100.33
  Q 71.70 96.04 70.80 91.66
  Q 70.12 88.36 67.57 85.85
  Q 67.27 85.55 67.37 85.13
  Q 67.44 84.84 67.05 84.71
  Q 67.01 84.70 67.00 84.73
  L 66.86 85.12
  Q 66.75 85.45 66.58 85.11
  Q 66.50 84.95 66.29 84.91"
/>
<path stroke="#23b0c0" vector-effect="non-scaling-stroke" d="
  M 465.38 126.72
  L 439.85 133.65
  Q 439.44 133.76 439.10 133.51
  Q 438.54 133.11 438.02 133.52
  Q 437.68 133.79 437.25 133.83
  Q 436.33 133.90 435.16 133.59"
/>
<path stroke="#23b0c0" vector-effect="non-scaling-stroke" d="
  M 47.18 164.83
  Q 46.30 164.61 46.46 163.82
  Q 46.58 163.21 46.09 163.60
  Q 46.02 163.66 45.93 163.63
  Q 45.59 163.53 45.39 163.29
  Q 41.46 158.53 37.22 153.02
  Q 36.23 151.73 35.68 150.72
  C 34.90 149.30 33.87 148.47 32.92 147.24
  Q 32.56 146.77 31.97 146.70
  Q 31.24 146.62 31.38 145.92
  Q 31.51 145.24 30.98 144.80
  L 30.02 143.99
  Q 29.60 143.64 29.74 143.11
  Q 30.00 142.17 29.02 141.42"
/>
<path stroke="#91b3c9" vector-effect="non-scaling-stroke" d="
  M 158.51 157.25
  L 106.03 171.71
  Q 104.50 172.13 104.50 173.71
  L 104.53 203.53
  Q 104.53 204.34 105.30 204.11
  L 148.96 191.34"
/>
<path stroke="#889aa6" vector-effect="non-scaling-stroke" d="
  M 148.96 191.34
  L 241.88 164.18"
/>
<path stroke="#91b3c9" vector-effect="non-scaling-stroke" d="
  M 241.88 164.18
  Q 245.39 163.36 248.61 162.43
  C 250.11 162.00 252.60 161.76 253.76 162.04
  Q 261.76 163.98 290.11 171.84"
/>
<path stroke="#95c1de" vector-effect="non-scaling-stroke" d="
  M 290.11 171.84
  L 400.00 201.77
  A 0.81 0.78 -59.5 0 0 400.77 201.56
  Q 401.12 201.22 401.11 200.72
  Q 400.88 187.48 401.03 175.45
  A 2.41 2.39 -81.8 0 0 399.29 173.11
  L 292.53 142.85"
/>
<path stroke="#91b3c9" vector-effect="non-scaling-stroke" d="
  M 292.53 142.85
  L 256.94 132.86"
/>
<path stroke="#889aa6" vector-effect="non-scaling-stroke" d="
  M 256.94 132.86
  Q 253.14 130.86 248.99 132.01
  Q 225.51 138.53 202.07 145.23
  Q 192.21 148.04 182.30 150.68
  Q 170.37 153.84 158.51 157.25"
/>
<path stroke="#1a4e70" vector-effect="non-scaling-stroke" d="
  M 256.94 132.86
  Q 256.12 136.52 255.44 140.10
  Q 254.59 144.62 253.52 147.22
  Q 251.47 152.18 248.29 156.53
  Q 247.74 157.29 244.82 160.07
  Q 242.94 161.87 241.88 164.18"
/>
<path stroke="#1a4e70" vector-effect="non-scaling-stroke" d="
  M 148.96 191.34
  Q 148.21 188.21 149.59 185.36
  Q 150.81 182.84 151.35 180.74
  Q 153.38 172.92 156.42 167.43
  Q 157.15 166.12 156.85 164.49
  Q 156.61 163.20 157.52 162.28
  Q 157.67 162.12 157.71 161.91
  Q 157.76 161.61 157.58 161.58
  Q 156.86 161.45 157.28 160.85
  Q 157.79 160.10 157.61 159.26
  Q 157.48 158.66 158.03 158.40
  Q 159.04 157.93 158.51 157.25"
/>
<path stroke="#2775a8" vector-effect="non-scaling-stroke" d="
  M 292.53 142.85
  Q 292.74 144.87 292.83 147.12
  Q 292.91 149.26 292.54 151.29
  Q 292.00 154.20 291.53 157.31
  Q 291.17 159.65 291.19 162.24
  Q 291.21 164.75 291.07 167.25
  Q 291.04 167.75 290.78 168.17
  Q 290.44 168.73 290.69 169.34
  Q 290.87 169.76 290.64 170.16
  Q 290.25 170.83 290.11 171.84"
/>
<path stroke="#95c1de" vector-effect="non-scaling-stroke" d="
  M 192.65 194.69
  L 128.27 212.32
  A 2.19 2.18 -7.8 0 0 126.65 214.44
  L 126.72 241.79
  A 0.54 0.54 0.0 0 0 127.42 242.31
  L 202.75 219.60"
/>
<path stroke="#91b3c9" vector-effect="non-scaling-stroke" d="
  M 202.75 219.60
  L 244.44 207.06"
/>
<path stroke="#889aa6" vector-effect="non-scaling-stroke" d="
  M 244.44 207.06
  Q 250.91 204.69 254.76 205.74
  C 270.05 209.93 285.30 214.24 300.67 218.12"
/>
<path stroke="#91a8c2" vector-effect="non-scaling-stroke" d="
  M 300.67 218.12
  L 336.05 227.85"
/>
<path stroke="#91b3c9" vector-effect="non-scaling-stroke" d="
  M 336.05 227.85
  L 376.67 238.93
  A 0.22 0.21 8.3 0 0 376.95 238.73
  L 377.07 212.20
  A 1.44 1.43 7.8 0 0 376.00 210.80
  L 348.52 203.52"
/>
<path stroke="#91a8c2" vector-effect="non-scaling-stroke" d="
  M 348.52 203.52
  L 318.82 195.93"
/>
<path stroke="#889aa6" vector-effect="non-scaling-stroke" d="
  M 318.82 195.93
  Q 315.58 194.82 313.97 194.38
  Q 285.25 186.62 256.51 178.93
  Q 252.84 177.95 250.63 178.25"
/>
<path stroke="#91b3c9" vector-effect="non-scaling-stroke" d="
  M 250.63 178.25
  L 192.65 194.69"
/>
<path stroke="#1a4e70" vector-effect="non-scaling-stroke" d="
  M 250.63 178.25
  Q 243.38 192.32 244.44 207.06"
/>
<path stroke="#2775a8" vector-effect="non-scaling-stroke" d="
  M 202.75 219.60
  Q 201.02 219.57 199.59 219.25
  Q 198.85 219.08 199.44 218.61
  Q 199.64 218.44 199.44 218.28
  Q 199.11 218.01 199.15 217.59
  Q 199.18 217.27 199.31 216.97
  Q 199.50 216.51 199.43 216.02
  Q 199.11 213.76 199.25 211.58
  C 199.34 210.15 198.93 208.65 198.71 207.22
  Q 198.48 205.70 197.55 204.33
  C 196.19 202.34 195.92 200.26 194.06 198.48
  A 0.07 0.06 -22.4 0 1 194.11 198.37
  L 194.52 198.36
  Q 195.06 198.36 194.95 197.83
  Q 194.64 196.32 192.65 194.69"
/>
<path stroke="#1a4369" vector-effect="non-scaling-stroke" d="
  M 318.82 195.93
  Q 317.53 201.43 313.13 206.16
  C 312.45 206.89 312.36 207.72 311.40 208.21
  Q 310.94 208.45 310.80 208.95
  Q 310.64 209.59 309.96 209.75
  A 1.22 1.14 13.9 0 0 309.37 210.08
  Q 309.19 210.28 309.13 210.55
  Q 309.03 211.00 308.67 211.29
  L 302.12 216.63
  Q 301.86 216.84 301.79 217.16
  Q 301.74 217.40 301.59 217.29
  Q 301.02 216.88 300.86 217.60
  Q 300.80 217.85 300.67 218.12"
/>
<path stroke="#235c8c" vector-effect="non-scaling-stroke" d="
  M 348.52 203.52
  Q 348.56 204.06 349.14 204.45
  Q 349.54 204.73 349.21 205.08
  Q 347.17 207.25 346.22 210.13
  A 1.36 1.36 0.0 0 1 345.71 210.82
  Q 345.34 211.07 345.18 211.48
  Q 343.32 216.11 340.47 220.50
  Q 339.79 221.54 339.60 222.71
  Q 339.54 223.04 339.32 223.29
  Q 338.35 224.42 338.14 225.90
  Q 338.07 226.39 337.68 226.68
  L 336.05 227.85"
/>
<path stroke="#8cbdc3" vector-effect="non-scaling-stroke" d="
  M 352.73 361.57
  L 352.58 320.06"
/>
<path stroke="#8fccd3" vector-effect="non-scaling-stroke" d="
  M 352.58 320.06
  L 352.65 255.61
  A 1.69 1.69 0.0 0 0 351.53 254.02
  L 328.69 246.02
  A 0.29 0.28 9.7 0 0 328.31 246.28
  L 328.27 291.52"
/>
<path stroke="#8cbdc3" vector-effect="non-scaling-stroke" d="
  M 328.27 291.52
  L 328.32 431.28
  A 0.47 0.47 0.0 0 0 328.98 431.71
  Q 342.72 425.52 354.60 418.87
  Q 359.37 416.20 364.47 412.20
  Q 372.49 405.91 380.61 398.22"
/>
<path stroke="#93e4ed" vector-effect="non-scaling-stroke" d="
  M 380.61 398.22
  Q 411.10 370.95 430.32 335.09
  Q 460.08 279.57 448.85 216.15
  C 447.60 209.13 445.20 201.08 440.60 195.47
  C 439.22 193.79 436.49 193.46 435.48 195.78
  C 432.74 202.13 434.22 210.53 434.35 217.33
  Q 434.60 230.32 434.51 234.00
  Q 434.04 251.53 428.59 271.33
  C 423.26 290.70 412.17 309.92 399.15 324.63
  Q 394.92 329.40 389.82 334.43
  C 384.85 339.33 378.72 343.72 373.36 348.36
  Q 367.82 353.16 352.73 361.57"
/>
<path stroke="#20a2b0" vector-effect="non-scaling-stroke" d="
  M 380.61 398.22
  Q 368.80 397.89 361.76 393.21
  Q 355.48 389.03 353.39 381.69
  Q 350.47 371.45 352.73 361.57"
/>
<path stroke="#1b8a96" vector-effect="non-scaling-stroke" d="
  M 352.58 320.06
  L 351.43 319.67
  Q 350.91 319.49 350.91 318.94
  Q 350.90 317.68 350.32 316.82
  Q 347.50 312.68 345.37 308.57
  Q 345.00 307.86 345.14 308.65
  Q 345.18 308.90 345.06 309.14
  Q 344.71 309.82 344.56 309.07
  C 344.39 308.22 344.06 307.52 343.43 306.93
  Q 342.21 305.78 341.60 304.12
  A 2.05 2.01 -80.0 0 0 341.03 303.29
  Q 337.17 299.84 334.06 295.78
  Q 333.35 294.85 332.54 294.31
  C 331.48 293.60 330.99 292.29 329.95 291.68
  Q 328.78 291.00 328.27 291.52"
/>
<path stroke="#8cbdc3" vector-effect="non-scaling-stroke" d="
  M 123.37 400.98
  Q 130.72 408.01 138.66 414.35
  C 149.73 423.17 162.48 428.74 175.48 434.93
  A 0.34 0.33 -77.4 0 0 175.96 434.62
  L 175.96 368.97"
/>
<path stroke="#8fccd3" vector-effect="non-scaling-stroke" d="
  M 175.96 368.97
  L 175.97 249.53
  A 0.41 0.41 0.0 0 0 175.42 249.14
  L 152.91 256.97
  A 2.02 2.01 -10.0 0 0 151.56 258.88
  L 151.61 360.96"
/>
<path stroke="#8cbdc3" vector-effect="non-scaling-stroke" d="
  M 151.61 360.96
  L 151.42 364.43"
/>
<path stroke="#93e4ed" vector-effect="non-scaling-stroke" d="
  M 151.42 364.43
  Q 140.38 358.56 133.03 352.92
  Q 124.39 346.29 117.68 340.32
  Q 97.47 322.35 85.29 298.40
  Q 78.03 284.13 74.98 271.64
  C 72.18 260.18 69.99 249.56 69.96 238.00
  Q 69.93 220.84 70.25 206.49
  C 70.31 203.40 69.99 199.11 67.28 197.26
  Q 66.78 196.92 66.19 197.03
  C 61.03 198.07 56.91 211.98 55.97 216.80
  C 52.58 234.31 51.22 251.93 53.00 269.51
  Q 57.22 311.17 79.47 347.80
  Q 97.70 377.80 123.37 400.98"
/>
<path stroke="#20a2b0" vector-effect="non-scaling-stroke" d="
  M 151.42 364.43
  Q 152.45 369.64 152.16 377.73
  C 151.78 388.27 146.47 395.69 136.52 399.17
  Q 130.26 401.36 123.37 400.98"
/>
<path stroke="#1b8a96" vector-effect="non-scaling-stroke" d="
  M 175.96 368.97
  Q 175.40 365.99 172.86 366.31
  A 1.45 1.43 -32.7 0 1 171.95 366.12
  Q 169.42 364.61 166.83 362.82
  Q 164.53 361.23 161.99 360.51
  Q 156.39 358.93 152.14 359.66
  A 0.60 0.60 0.0 0 0 151.64 360.23
  L 151.61 360.96"
/>
<path stroke="#99a9d4" vector-effect="non-scaling-stroke" d="
  M 199.37 316.04
  L 199.31 432.72
  A 1.61 1.60 -85.6 0 0 200.66 434.31
  Q 219.02 437.29 237.98 440.67
  Q 239.55 440.95 241.13 441.00
  A 0.50 0.49 0.6 0 0 241.64 440.51
  L 241.56 322.63"
/>
<path stroke="#91a8c2" vector-effect="non-scaling-stroke" d="
  M 241.56 322.63
  L 241.57 227.16
  A 0.81 0.80 -7.6 0 0 240.54 226.38
  L 199.25 237.73
  Q 198.21 238.01 198.72 238.96
  Q 199.14 239.72 199.15 241.00
  Q 199.45 278.52 199.37 316.04"
/>
<path stroke="#2b5297" vector-effect="non-scaling-stroke" d="
  M 241.56 322.63
  Q 230.39 320.12 219.24 318.28
  Q 211.45 316.99 201.59 318.75
  Q 199.11 319.19 199.37 316.04"
/>
<path stroke="#99a9d4" vector-effect="non-scaling-stroke" d="
  M 265.04 324.70
  L 265.01 440.17
  A 0.93 0.92 85.5 0 0 266.08 441.09
  L 305.70 434.78
  A 1.26 1.25 85.4 0 0 306.75 433.54
  L 306.47 315.75"
/>
<path stroke="#91a8c2" vector-effect="non-scaling-stroke" d="
  M 306.47 315.75
  L 306.78 238.21
  Q 306.78 236.85 305.45 236.59
  L 266.23 228.73
  A 1.04 1.03 5.7 0 0 264.99 229.74
  L 265.04 324.70"
/>
<path stroke="#2b5297" vector-effect="non-scaling-stroke" d="
  M 306.47 315.75
  L 304.19 316.11
  Q 303.70 316.18 303.30 316.48
  Q 294.64 322.81 283.23 324.50
  Q 273.24 325.99 265.04 324.70"
/>
</g>
<path fill="transparent" d="
  M 0.00 0.00
  L 502.00 0.00
  L 502.00 463.00
  L 0.00 463.00
  L 0.00 0.00
  Z
  M 91.18 63.58
  Q 77.86 73.15 66.29 84.91
  Q 42.21 109.65 29.02 141.42
  Q 20.27 162.99 16.93 186.00
  Q 14.95 199.62 14.62 206.31
  Q 13.53 228.49 14.67 241.66
  Q 16.35 260.94 18.94 276.44
  C 21.37 290.95 24.91 305.29 29.15 320.26
  Q 29.84 322.72 32.33 323.71
  Q 32.78 323.89 33.13 323.59
  Q 34.64 322.30 34.34 320.11
  Q 31.77 301.73 30.14 286.12
  C 29.10 276.14 29.19 266.52 29.08 256.47
  Q 28.82 232.95 33.77 208.03
  Q 35.38 199.89 37.59 191.36
  C 38.87 186.44 40.80 182.01 42.36 177.15
  Q 44.37 170.91 47.18 164.83
  Q 49.64 159.71 52.39 154.59
  Q 63.13 134.54 78.72 117.97
  Q 80.91 115.63 82.35 114.44
  Q 92.48 104.38 103.73 96.40
  Q 118.75 85.90 125.67 82.67
  Q 130.12 80.60 134.40 78.45
  C 139.74 75.77 145.25 73.77 150.73 71.47
  Q 154.31 69.97 158.26 68.63
  Q 184.83 59.60 212.51 55.52
  Q 229.38 53.04 236.42 52.28
  Q 250.13 50.81 264.76 52.44
  Q 289.03 55.14 308.47 59.33
  Q 327.59 63.45 345.03 69.68
  Q 360.35 75.15 376.92 83.83
  Q 390.64 91.44 403.05 100.90
  C 405.45 102.73 408.11 105.25 410.79 107.33
  Q 424.33 119.06 435.16 133.59
  Q 447.99 151.00 456.23 170.92
  C 458.08 175.40 459.39 179.91 461.04 184.42
  Q 462.84 189.35 464.13 194.69
  Q 468.93 214.61 470.39 229.94
  Q 474.40 272.18 466.59 318.01
  Q 466.16 320.56 466.88 322.77
  A 1.42 1.42 0.0 0 0 468.94 323.57
  C 471.30 322.21 471.58 320.51 472.44 317.53
  C 480.99 287.69 485.88 257.99 486.67 227.07
  C 486.82 221.25 486.46 215.29 486.25 209.50
  Q 485.44 188.25 480.41 168.24
  C 478.82 161.92 477.40 155.48 475.25 149.36
  Q 471.09 137.47 465.38 126.72
  Q 457.66 112.05 448.04 99.82
  Q 439.22 88.54 428.99 79.00
  Q 411.41 62.80 390.67 50.84
  Q 365.45 36.30 337.46 27.74
  C 329.80 25.40 322.30 22.88 314.66 21.28
  C 308.92 20.08 303.22 18.49 297.34 17.45
  Q 277.68 13.98 264.65 13.09
  Q 247.56 11.91 230.97 13.69
  Q 217.86 15.09 203.58 17.54
  C 198.25 18.45 193.23 20.06 187.91 21.10
  C 179.05 22.83 170.47 25.76 161.97 28.42
  Q 134.79 36.92 109.86 51.37
  Q 100.26 56.93 91.18 63.58
  Z
  M 158.51 157.25
  L 106.03 171.71
  Q 104.50 172.13 104.50 173.71
  L 104.53 203.53
  Q 104.53 204.34 105.30 204.11
  L 148.96 191.34
  L 241.88 164.18
  Q 245.39 163.36 248.61 162.43
  C 250.11 162.00 252.60 161.76 253.76 162.04
  Q 261.76 163.98 290.11 171.84
  L 400.00 201.77
  A 0.81 0.78 -59.5 0 0 400.77 201.56
  Q 401.12 201.22 401.11 200.72
  Q 400.88 187.48 401.03 175.45
  A 2.41 2.39 -81.8 0 0 399.29 173.11
  L 292.53 142.85
  L 256.94 132.86
  Q 253.14 130.86 248.99 132.01
  Q 225.51 138.53 202.07 145.23
  Q 192.21 148.04 182.30 150.68
  Q 170.37 153.84 158.51 157.25
  Z
  M 192.65 194.69
  L 128.27 212.32
  A 2.19 2.18 -7.8 0 0 126.65 214.44
  L 126.72 241.79
  A 0.54 0.54 0.0 0 0 127.42 242.31
  L 202.75 219.60
  L 244.44 207.06
  Q 250.91 204.69 254.76 205.74
  C 270.05 209.93 285.30 214.24 300.67 218.12
  L 336.05 227.85
  L 376.67 238.93
  A 0.22 0.21 8.3 0 0 376.95 238.73
  L 377.07 212.20
  A 1.44 1.43 7.8 0 0 376.00 210.80
  L 348.52 203.52
  L 318.82 195.93
  Q 315.58 194.82 313.97 194.38
  Q 285.25 186.62 256.51 178.93
  Q 252.84 177.95 250.63 178.25
  L 192.65 194.69
  Z
  M 352.73 361.57
  L 352.58 320.06
  L 352.65 255.61
  A 1.69 1.69 0.0 0 0 351.53 254.02
  L 328.69 246.02
  A 0.29 0.28 9.7 0 0 328.31 246.28
  L 328.27 291.52
  L 328.32 431.28
  A 0.47 0.47 0.0 0 0 328.98 431.71
  Q 342.72 425.52 354.60 418.87
  Q 359.37 416.20 364.47 412.20
  Q 372.49 405.91 380.61 398.22
  Q 411.10 370.95 430.32 335.09
  Q 460.08 279.57 448.85 216.15
  C 447.60 209.13 445.20 201.08 440.60 195.47
  C 439.22 193.79 436.49 193.46 435.48 195.78
  C 432.74 202.13 434.22 210.53 434.35 217.33
  Q 434.60 230.32 434.51 234.00
  Q 434.04 251.53 428.59 271.33
  C 423.26 290.70 412.17 309.92 399.15 324.63
  Q 394.92 329.40 389.82 334.43
  C 384.85 339.33 378.72 343.72 373.36 348.36
  Q 367.82 353.16 352.73 361.57
  Z
  M 123.37 400.98
  Q 130.72 408.01 138.66 414.35
  C 149.73 423.17 162.48 428.74 175.48 434.93
  A 0.34 0.33 -77.4 0 0 175.96 434.62
  L 175.96 368.97
  L 175.97 249.53
  A 0.41 0.41 0.0 0 0 175.42 249.14
  L 152.91 256.97
  A 2.02 2.01 -10.0 0 0 151.56 258.88
  L 151.61 360.96
  L 151.42 364.43
  Q 140.38 358.56 133.03 352.92
  Q 124.39 346.29 117.68 340.32
  Q 97.47 322.35 85.29 298.40
  Q 78.03 284.13 74.98 271.64
  C 72.18 260.18 69.99 249.56 69.96 238.00
  Q 69.93 220.84 70.25 206.49
  C 70.31 203.40 69.99 199.11 67.28 197.26
  Q 66.78 196.92 66.19 197.03
  C 61.03 198.07 56.91 211.98 55.97 216.80
  C 52.58 234.31 51.22 251.93 53.00 269.51
  Q 57.22 311.17 79.47 347.80
  Q 97.70 377.80 123.37 400.98
  Z
  M 199.37 316.04
  L 199.31 432.72
  A 1.61 1.60 -85.6 0 0 200.66 434.31
  Q 219.02 437.29 237.98 440.67
  Q 239.55 440.95 241.13 441.00
  A 0.50 0.49 0.6 0 0 241.64 440.51
  L 241.56 322.63
  L 241.57 227.16
  A 0.81 0.80 -7.6 0 0 240.54 226.38
  L 199.25 237.73
  Q 198.21 238.01 198.72 238.96
  Q 199.14 239.72 199.15 241.00
  Q 199.45 278.52 199.37 316.04
  Z
  M 265.04 324.70
  L 265.01 440.17
  A 0.93 0.92 85.5 0 0 266.08 441.09
  L 305.70 434.78
  A 1.26 1.25 85.4 0 0 306.75 433.54
  L 306.47 315.75
  L 306.78 238.21
  Q 306.78 236.85 305.45 236.59
  L 266.23 228.73
  A 1.04 1.03 5.7 0 0 264.99 229.74
  L 265.04 324.70
  Z"
/>
<path fill="#136069" d="
  M 428.99 79.00
  Q 428.97 79.56 428.81 79.93
  Q 428.58 80.43 428.09 80.20
  Q 427.48 79.92 426.92 80.28
  Q 426.51 80.54 426.02 80.58
  C 424.56 80.70 423.62 80.87 421.99 80.69
  Q 420.72 80.55 419.40 80.93
  Q 418.94 81.07 418.59 80.74
  Q 418.37 80.54 418.14 80.79
  Q 417.91 81.04 417.57 81.08
  Q 410.34 81.99 403.40 83.06
  C 402.45 83.21 401.54 82.85 400.73 83.02
  Q 395.74 84.06 393.02 84.06
  Q 387.68 84.06 382.68 84.11
  Q 382.38 84.11 382.11 84.25
  Q 381.98 84.32 381.83 84.36
  Q 381.45 84.47 381.08 84.36
  Q 379.14 83.81 376.92 83.83
  Q 360.35 75.15 345.03 69.68
  Q 327.59 63.45 308.47 59.33
  Q 289.03 55.14 264.76 52.44
  Q 250.13 50.81 236.42 52.28
  Q 229.38 53.04 212.51 55.52
  Q 184.83 59.60 158.26 68.63
  Q 154.31 69.97 150.73 71.47
  C 145.25 73.77 139.74 75.77 134.40 78.45
  Q 130.12 80.60 125.67 82.67
  Q 118.75 85.90 103.73 96.40
  Q 101.92 94.27 101.01 91.29
  Q 99.83 87.38 99.21 85.90
  Q 97.53 81.90 96.63 77.66
  Q 95.86 74.07 95.07 71.97
  Q 94.04 69.21 92.95 66.48
  Q 92.77 66.02 92.38 65.71
  Q 90.80 64.46 91.18 63.58
  Q 100.26 56.93 109.86 51.37
  Q 134.79 36.92 161.97 28.42
  C 170.47 25.76 179.05 22.83 187.91 21.10
  C 193.23 20.06 198.25 18.45 203.58 17.54
  Q 217.86 15.09 230.97 13.69
  Q 247.56 11.91 264.65 13.09
  Q 277.68 13.98 297.34 17.45
  C 303.22 18.49 308.92 20.08 314.66 21.28
  C 322.30 22.88 329.80 25.40 337.46 27.74
  Q 365.45 36.30 390.67 50.84
  Q 411.41 62.80 428.99 79.00
  Z"
/>
<path fill="#187b86" d="
  M 91.18 63.58
  Q 90.80 64.46 92.38 65.71
  Q 92.77 66.02 92.95 66.48
  Q 94.04 69.21 95.07 71.97
  Q 95.86 74.07 96.63 77.66
  Q 97.53 81.90 99.21 85.90
  Q 99.83 87.38 101.01 91.29
  Q 101.92 94.27 103.73 96.40
  Q 92.48 104.38 82.35 114.44
  L 80.54 111.32
  A 0.02 0.02 0.0 0 1 80.55 111.29
  Q 80.76 111.31 80.79 111.19
  Q 80.82 111.04 80.75 110.91
  Q 78.54 106.89 76.21 103.36
  Q 75.97 103.00 75.97 102.57
  Q 75.96 101.65 75.18 101.16
  Q 74.69 100.84 74.37 100.33
  Q 71.70 96.04 70.80 91.66
  Q 70.12 88.36 67.57 85.85
  Q 67.27 85.55 67.37 85.13
  Q 67.44 84.84 67.05 84.71
  Q 67.01 84.70 67.00 84.73
  L 66.86 85.12
  Q 66.75 85.45 66.58 85.11
  Q 66.50 84.95 66.29 84.91
  Q 77.86 73.15 91.18 63.58
  Z"
/>
<path fill="#187b86" d="
  M 428.99 79.00
  Q 439.22 88.54 448.04 99.82
  Q 447.11 101.39 444.78 101.31
  Q 442.40 101.24 441.46 101.43
  Q 426.14 104.57 410.79 107.33
  C 408.11 105.25 405.45 102.73 403.05 100.90
  Q 390.64 91.44 376.92 83.83
  Q 379.14 83.81 381.08 84.36
  Q 381.45 84.47 381.83 84.36
  Q 381.98 84.32 382.11 84.25
  Q 382.38 84.11 382.68 84.11
  Q 387.68 84.06 393.02 84.06
  Q 395.74 84.06 400.73 83.02
  C 401.54 82.85 402.45 83.21 403.40 83.06
  Q 410.34 81.99 417.57 81.08
  Q 417.91 81.04 418.14 80.79
  Q 418.37 80.54 418.59 80.74
  Q 418.94 81.07 419.40 80.93
  Q 420.72 80.55 421.99 80.69
  C 423.62 80.87 424.56 80.70 426.02 80.58
  Q 426.51 80.54 426.92 80.28
  Q 427.48 79.92 428.09 80.20
  Q 428.58 80.43 428.81 79.93
  Q 428.97 79.56 428.99 79.00
  Z"
/>
<path fill="#1e98a6" d="
  M 82.35 114.44
  Q 80.91 115.63 78.72 117.97
  Q 63.13 134.54 52.39 154.59
  Q 49.64 159.71 47.18 164.83
  Q 46.30 164.61 46.46 163.82
  Q 46.58 163.21 46.09 163.60
  Q 46.02 163.66 45.93 163.63
  Q 45.59 163.53 45.39 163.29
  Q 41.46 158.53 37.22 153.02
  Q 36.23 151.73 35.68 150.72
  C 34.90 149.30 33.87 148.47 32.92 147.24
  Q 32.56 146.77 31.97 146.70
  Q 31.24 146.62 31.38 145.92
  Q 31.51 145.24 30.98 144.80
  L 30.02 143.99
  Q 29.60 143.64 29.74 143.11
  Q 30.00 142.17 29.02 141.42
  Q 42.21 109.65 66.29 84.91
  Q 66.50 84.95 66.58 85.11
  Q 66.75 85.45 66.86 85.12
  L 67.00 84.73
  Q 67.01 84.70 67.05 84.71
  Q 67.44 84.84 67.37 85.13
  Q 67.27 85.55 67.57 85.85
  Q 70.12 88.36 70.80 91.66
  Q 71.70 96.04 74.37 100.33
  Q 74.69 100.84 75.18 101.16
  Q 75.96 101.65 75.97 102.57
  Q 75.97 103.00 76.21 103.36
  Q 78.54 106.89 80.75 110.91
  Q 80.82 111.04 80.79 111.19
  Q 80.76 111.31 80.55 111.29
  A 0.02 0.02 0.0 0 0 80.54 111.32
  L 82.35 114.44
  Z"
/>
<path fill="#1e98a6" d="
  M 448.04 99.82
  Q 457.66 112.05 465.38 126.72
  L 439.85 133.65
  Q 439.44 133.76 439.10 133.51
  Q 438.54 133.11 438.02 133.52
  Q 437.68 133.79 437.25 133.83
  Q 436.33 133.90 435.16 133.59
  Q 424.33 119.06 410.79 107.33
  Q 426.14 104.57 441.46 101.43
  Q 442.40 101.24 444.78 101.31
  Q 447.11 101.39 448.04 99.82
  Z"
/>
<path fill="#27c8da" d="
  M 465.38 126.72
  Q 471.09 137.47 475.25 149.36
  C 477.40 155.48 478.82 161.92 480.41 168.24
  Q 485.44 188.25 486.25 209.50
  C 486.46 215.29 486.82 221.25 486.67 227.07
  C 485.88 257.99 480.99 287.69 472.44 317.53
  C 471.58 320.51 471.30 322.21 468.94 323.57
  A 1.42 1.42 0.0 0 1 466.88 322.77
  Q 466.16 320.56 466.59 318.01
  Q 474.40 272.18 470.39 229.94
  Q 468.93 214.61 464.13 194.69
  Q 462.84 189.35 461.04 184.42
  C 459.39 179.91 458.08 175.40 456.23 170.92
  Q 447.99 151.00 435.16 133.59
  Q 436.33 133.90 437.25 133.83
  Q 437.68 133.79 438.02 133.52
  Q 438.54 133.11 439.10 133.51
  Q 439.44 133.76 439.85 133.65
  L 465.38 126.72
  Z"
/>
<path fill="#11354c" d="
  M 256.94 132.86
  Q 256.12 136.52 255.44 140.10
  Q 254.59 144.62 253.52 147.22
  Q 251.47 152.18 248.29 156.53
  Q 247.74 157.29 244.82 160.07
  Q 242.94 161.87 241.88 164.18
  L 148.96 191.34
  Q 148.21 188.21 149.59 185.36
  Q 150.81 182.84 151.35 180.74
  Q 153.38 172.92 156.42 167.43
  Q 157.15 166.12 156.85 164.49
  Q 156.61 163.20 157.52 162.28
  Q 157.67 162.12 157.71 161.91
  Q 157.76 161.61 157.58 161.58
  Q 156.86 161.45 157.28 160.85
  Q 157.79 160.10 157.61 159.26
  Q 157.48 158.66 158.03 158.40
  Q 159.04 157.93 158.51 157.25
  Q 170.37 153.84 182.30 150.68
  Q 192.21 148.04 202.07 145.23
  Q 225.51 138.53 248.99 132.01
  Q 253.14 130.86 256.94 132.86
  Z"
/>
<path fill="#226793" d="
  M 256.94 132.86
  L 292.53 142.85
  Q 292.74 144.87 292.83 147.12
  Q 292.91 149.26 292.54 151.29
  Q 292.00 154.20 291.53 157.31
  Q 291.17 159.65 291.19 162.24
  Q 291.21 164.75 291.07 167.25
  Q 291.04 167.75 290.78 168.17
  Q 290.44 168.73 290.69 169.34
  Q 290.87 169.76 290.64 170.16
  Q 290.25 170.83 290.11 171.84
  Q 261.76 163.98 253.76 162.04
  C 252.60 161.76 250.11 162.00 248.61 162.43
  Q 245.39 163.36 241.88 164.18
  Q 242.94 161.87 244.82 160.07
  Q 247.74 157.29 248.29 156.53
  Q 251.47 152.18 253.52 147.22
  Q 254.59 144.62 255.44 140.10
  Q 256.12 136.52 256.94 132.86
  Z"
/>
<path fill="#27c8da" d="
  M 29.02 141.42
  Q 30.00 142.17 29.74 143.11
  Q 29.60 143.64 30.02 143.99
  L 30.98 144.80
  Q 31.51 145.24 31.38 145.92
  Q 31.24 146.62 31.97 146.70
  Q 32.56 146.77 32.92 147.24
  C 33.87 148.47 34.90 149.30 35.68 150.72
  Q 36.23 151.73 37.22 153.02
  Q 41.46 158.53 45.39 163.29
  Q 45.59 163.53 45.93 163.63
  Q 46.02 163.66 46.09 163.60
  Q 46.58 163.21 46.46 163.82
  Q 46.30 164.61 47.18 164.83
  Q 44.37 170.91 42.36 177.15
  C 40.80 182.01 38.87 186.44 37.59 191.36
  Q 35.38 199.89 33.77 208.03
  Q 28.82 232.95 29.08 256.47
  C 29.19 266.52 29.10 276.14 30.14 286.12
  Q 31.77 301.73 34.34 320.11
  Q 34.64 322.30 33.13 323.59
  Q 32.78 323.89 32.33 323.71
  Q 29.84 322.72 29.15 320.26
  C 24.91 305.29 21.37 290.95 18.94 276.44
  Q 16.35 260.94 14.67 241.66
  Q 13.53 228.49 14.62 206.31
  Q 14.95 199.62 16.93 186.00
  Q 20.27 162.99 29.02 141.42
  Z"
/>
<path fill="#2b83bc" d="
  M 292.53 142.85
  L 399.29 173.11
  A 2.41 2.39 -81.8 0 1 401.03 175.45
  Q 400.88 187.48 401.11 200.72
  Q 401.12 201.22 400.77 201.56
  A 0.81 0.78 -59.5 0 1 400.00 201.77
  L 290.11 171.84
  Q 290.25 170.83 290.64 170.16
  Q 290.87 169.76 290.69 169.34
  Q 290.44 168.73 290.78 168.17
  Q 291.04 167.75 291.07 167.25
  Q 291.21 164.75 291.19 162.24
  Q 291.17 159.65 291.53 157.31
  Q 292.00 154.20 292.54 151.29
  Q 292.91 149.26 292.83 147.12
  Q 292.74 144.87 292.53 142.85
  Z"
/>
<path fill="#226793" d="
  M 158.51 157.25
  Q 159.04 157.93 158.03 158.40
  Q 157.48 158.66 157.61 159.26
  Q 157.79 160.10 157.28 160.85
  Q 156.86 161.45 157.58 161.58
  Q 157.76 161.61 157.71 161.91
  Q 157.67 162.12 157.52 162.28
  Q 156.61 163.20 156.85 164.49
  Q 157.15 166.12 156.42 167.43
  Q 153.38 172.92 151.35 180.74
  Q 150.81 182.84 149.59 185.36
  Q 148.21 188.21 148.96 191.34
  L 105.30 204.11
  Q 104.53 204.34 104.53 203.53
  L 104.50 173.71
  Q 104.50 172.13 106.03 171.71
  L 158.51 157.25
  Z"
/>
<path fill="#226793" d="
  M 250.63 178.25
  Q 243.38 192.32 244.44 207.06
  L 202.75 219.60
  Q 201.02 219.57 199.59 219.25
  Q 198.85 219.08 199.44 218.61
  Q 199.64 218.44 199.44 218.28
  Q 199.11 218.01 199.15 217.59
  Q 199.18 217.27 199.31 216.97
  Q 199.50 216.51 199.43 216.02
  Q 199.11 213.76 199.25 211.58
  C 199.34 210.15 198.93 208.65 198.71 207.22
  Q 198.48 205.70 197.55 204.33
  C 196.19 202.34 195.92 200.26 194.06 198.48
  A 0.07 0.06 -22.4 0 1 194.11 198.37
  L 194.52 198.36
  Q 195.06 198.36 194.95 197.83
  Q 194.64 196.32 192.65 194.69
  L 250.63 178.25
  Z"
/>
<path fill="#11354c" d="
  M 250.63 178.25
  Q 252.84 177.95 256.51 178.93
  Q 285.25 186.62 313.97 194.38
  Q 315.58 194.82 318.82 195.93
  Q 317.53 201.43 313.13 206.16
  C 312.45 206.89 312.36 207.72 311.40 208.21
  Q 310.94 208.45 310.80 208.95
  Q 310.64 209.59 309.96 209.75
  A 1.22 1.14 13.9 0 0 309.37 210.08
  Q 309.19 210.28 309.13 210.55
  Q 309.03 211.00 308.67 211.29
  L 302.12 216.63
  Q 301.86 216.84 301.79 217.16
  Q 301.74 217.40 301.59 217.29
  Q 301.02 216.88 300.86 217.60
  Q 300.80 217.85 300.67 218.12
  C 285.30 214.24 270.05 209.93 254.76 205.74
  Q 250.91 204.69 244.44 207.06
  Q 243.38 192.32 250.63 178.25
  Z"
/>
<path fill="#27c8da" d="
  M 380.61 398.22
  Q 368.80 397.89 361.76 393.21
  Q 355.48 389.03 353.39 381.69
  Q 350.47 371.45 352.73 361.57
  Q 367.82 353.16 373.36 348.36
  C 378.72 343.72 384.85 339.33 389.82 334.43
  Q 394.92 329.40 399.15 324.63
  C 412.17 309.92 423.26 290.70 428.59 271.33
  Q 434.04 251.53 434.51 234.00
  Q 434.60 230.32 434.35 217.33
  C 434.22 210.53 432.74 202.13 435.48 195.78
  C 436.49 193.46 439.22 193.79 440.60 195.47
  C 445.20 201.08 447.60 209.13 448.85 216.15
  Q 460.08 279.57 430.32 335.09
  Q 411.10 370.95 380.61 398.22
  Z"
/>
<path fill="#2b83bc" d="
  M 192.65 194.69
  Q 194.64 196.32 194.95 197.83
  Q 195.06 198.36 194.52 198.36
  L 194.11 198.37
  A 0.07 0.06 -22.4 0 0 194.06 198.48
  C 195.92 200.26 196.19 202.34 197.55 204.33
  Q 198.48 205.70 198.71 207.22
  C 198.93 208.65 199.34 210.15 199.25 211.58
  Q 199.11 213.76 199.43 216.02
  Q 199.50 216.51 199.31 216.97
  Q 199.18 217.27 199.15 217.59
  Q 199.11 218.01 199.44 218.28
  Q 199.64 218.44 199.44 218.61
  Q 198.85 219.08 199.59 219.25
  Q 201.02 219.57 202.75 219.60
  L 127.42 242.31
  A 0.54 0.54 0.0 0 1 126.72 241.79
  L 126.65 214.44
  A 2.19 2.18 -7.8 0 1 128.27 212.32
  L 192.65 194.69
  Z"
/>
<path fill="#235185" d="
  M 318.82 195.93
  L 348.52 203.52
  Q 348.56 204.06 349.14 204.45
  Q 349.54 204.73 349.21 205.08
  Q 347.17 207.25 346.22 210.13
  A 1.36 1.36 0.0 0 1 345.71 210.82
  Q 345.34 211.07 345.18 211.48
  Q 343.32 216.11 340.47 220.50
  Q 339.79 221.54 339.60 222.71
  Q 339.54 223.04 339.32 223.29
  Q 338.35 224.42 338.14 225.90
  Q 338.07 226.39 337.68 226.68
  L 336.05 227.85
  L 300.67 218.12
  Q 300.80 217.85 300.86 217.60
  Q 301.02 216.88 301.59 217.29
  Q 301.74 217.40 301.79 217.16
  Q 301.86 216.84 302.12 216.63
  L 308.67 211.29
  Q 309.03 211.00 309.13 210.55
  Q 309.19 210.28 309.37 210.08
  A 1.22 1.14 13.9 0 1 309.96 209.75
  Q 310.64 209.59 310.80 208.95
  Q 310.94 208.45 311.40 208.21
  C 312.36 207.72 312.45 206.89 313.13 206.16
  Q 317.53 201.43 318.82 195.93
  Z"
/>
<path fill="#27c8da" d="
  M 151.42 364.43
  Q 152.45 369.64 152.16 377.73
  C 151.78 388.27 146.47 395.69 136.52 399.17
  Q 130.26 401.36 123.37 400.98
  Q 97.70 377.80 79.47 347.80
  Q 57.22 311.17 53.00 269.51
  C 51.22 251.93 52.58 234.31 55.97 216.80
  C 56.91 211.98 61.03 198.07 66.19 197.03
  Q 66.78 196.92 67.28 197.26
  C 69.99 199.11 70.31 203.40 70.25 206.49
  Q 69.93 220.84 69.96 238.00
  C 69.99 249.56 72.18 260.18 74.98 271.64
  Q 78.03 284.13 85.29 298.40
  Q 97.47 322.35 117.68 340.32
  Q 124.39 346.29 133.03 352.92
  Q 140.38 358.56 151.42 364.43
  Z"
/>
<path fill="#226793" d="
  M 348.52 203.52
  L 376.00 210.80
  A 1.44 1.43 7.8 0 1 377.07 212.20
  L 376.95 238.73
  A 0.22 0.21 8.3 0 1 376.67 238.93
  L 336.05 227.85
  L 337.68 226.68
  Q 338.07 226.39 338.14 225.90
  Q 338.35 224.42 339.32 223.29
  Q 339.54 223.04 339.60 222.71
  Q 339.79 221.54 340.47 220.50
  Q 343.32 216.11 345.18 211.48
  Q 345.34 211.07 345.71 210.82
  A 1.36 1.36 0.0 0 0 346.22 210.13
  Q 347.17 207.25 349.21 205.08
  Q 349.54 204.73 349.14 204.45
  Q 348.56 204.06 348.52 203.52
  Z"
/>
<path fill="#235185" d="
  M 241.56 322.63
  Q 230.39 320.12 219.24 318.28
  Q 211.45 316.99 201.59 318.75
  Q 199.11 319.19 199.37 316.04
  Q 199.45 278.52 199.15 241.00
  Q 199.14 239.72 198.72 238.96
  Q 198.21 238.01 199.25 237.73
  L 240.54 226.38
  A 0.81 0.80 -7.6 0 1 241.57 227.16
  L 241.56 322.63
  Z"
/>
<path fill="#235185" d="
  M 306.47 315.75
  L 304.19 316.11
  Q 303.70 316.18 303.30 316.48
  Q 294.64 322.81 283.23 324.50
  Q 273.24 325.99 265.04 324.70
  L 264.99 229.74
  A 1.04 1.03 5.7 0 1 266.23 228.73
  L 305.45 236.59
  Q 306.78 236.85 306.78 238.21
  L 306.47 315.75
  Z"
/>
<path fill="#1e98a6" d="
  M 352.58 320.06
  L 351.43 319.67
  Q 350.91 319.49 350.91 318.94
  Q 350.90 317.68 350.32 316.82
  Q 347.50 312.68 345.37 308.57
  Q 345.00 307.86 345.14 308.65
  Q 345.18 308.90 345.06 309.14
  Q 344.71 309.82 344.56 309.07
  C 344.39 308.22 344.06 307.52 343.43 306.93
  Q 342.21 305.78 341.60 304.12
  A 2.05 2.01 -80.0 0 0 341.03 303.29
  Q 337.17 299.84 334.06 295.78
  Q 333.35 294.85 332.54 294.31
  C 331.48 293.60 330.99 292.29 329.95 291.68
  Q 328.78 291.00 328.27 291.52
  L 328.31 246.28
  A 0.29 0.28 9.7 0 1 328.69 246.02
  L 351.53 254.02
  A 1.69 1.69 0.0 0 1 352.65 255.61
  L 352.58 320.06
  Z"
/>
<path fill="#1e98a6" d="
  M 175.96 368.97
  Q 175.40 365.99 172.86 366.31
  A 1.45 1.43 -32.7 0 1 171.95 366.12
  Q 169.42 364.61 166.83 362.82
  Q 164.53 361.23 161.99 360.51
  Q 156.39 358.93 152.14 359.66
  A 0.60 0.60 0.0 0 0 151.64 360.23
  L 151.61 360.96
  L 151.56 258.88
  A 2.02 2.01 -10.0 0 1 152.91 256.97
  L 175.42 249.14
  A 0.41 0.41 0.0 0 1 175.97 249.53
  L 175.96 368.97
  Z"
/>
<path fill="#187b86" d="
  M 352.58 320.06
  L 352.73 361.57
  Q 350.47 371.45 353.39 381.69
  Q 355.48 389.03 361.76 393.21
  Q 368.80 397.89 380.61 398.22
  Q 372.49 405.91 364.47 412.20
  Q 359.37 416.20 354.60 418.87
  Q 342.72 425.52 328.98 431.71
  A 0.47 0.47 0.0 0 1 328.32 431.28
  L 328.27 291.52
  Q 328.78 291.00 329.95 291.68
  C 330.99 292.29 331.48 293.60 332.54 294.31
  Q 333.35 294.85 334.06 295.78
  Q 337.17 299.84 341.03 303.29
  A 2.05 2.01 -80.0 0 1 341.60 304.12
  Q 342.21 305.78 343.43 306.93
  C 344.06 307.52 344.39 308.22 344.56 309.07
  Q 344.71 309.82 345.06 309.14
  Q 345.18 308.90 345.14 308.65
  Q 345.00 307.86 345.37 308.57
  Q 347.50 312.68 350.32 316.82
  Q 350.90 317.68 350.91 318.94
  Q 350.91 319.49 351.43 319.67
  L 352.58 320.06
  Z"
/>
<path fill="#3353a8" d="
  M 306.47 315.75
  L 306.75 433.54
  A 1.26 1.25 85.4 0 1 305.70 434.78
  L 266.08 441.09
  A 0.93 0.92 85.5 0 1 265.01 440.17
  L 265.04 324.70
  Q 273.24 325.99 283.23 324.50
  Q 294.64 322.81 303.30 316.48
  Q 303.70 316.18 304.19 316.11
  L 306.47 315.75
  Z"
/>
<path fill="#3353a8" d="
  M 199.37 316.04
  Q 199.11 319.19 201.59 318.75
  Q 211.45 316.99 219.24 318.28
  Q 230.39 320.12 241.56 322.63
  L 241.64 440.51
  A 0.50 0.49 0.6 0 1 241.13 441.00
  Q 239.55 440.95 237.98 440.67
  Q 219.02 437.29 200.66 434.31
  A 1.61 1.60 -85.6 0 1 199.31 432.72
  L 199.37 316.04
  Z"
/>
<path fill="#187b86" d="
  M 175.96 368.97
  L 175.96 434.62
  A 0.34 0.33 -77.4 0 1 175.48 434.93
  C 162.48 428.74 149.73 423.17 138.66 414.35
  Q 130.72 408.01 123.37 400.98
  Q 130.26 401.36 136.52 399.17
  C 146.47 395.69 151.78 388.27 152.16 377.73
  Q 152.45 369.64 151.42 364.43
  L 151.61 360.96
  L 151.64 360.23
  A 0.60 0.60 0.0 0 1 152.14 359.66
  Q 156.39 358.93 161.99 360.51
  Q 164.53 361.23 166.83 362.82
  Q 169.42 364.61 171.95 366.12
  A 1.45 1.43 -32.7 0 0 172.86 366.31
  Q 175.40 365.99 175.96 368.97
  Z"
/>
</svg>
